<svg xmlns="http://www.w3.org/2000/svg" xmlns:xlink="http://www.w3.org/1999/xlink">
	<defs>
		<symbol id="airplay">
			<path d="M5 17H4a2 2 0 0 1-2-2V5a2 2 0 0 1 2-2h16a2 2 0 0 1 2 2v10a2 2 0 0 1-2 2h-1"/>
			<polygon points="12 15 17 21 7 21 12 15"/>
		</symbol>
		<symbol id="chevrons-right">
			<path d="M13 17l5-5-5-5"/>
			<path d="M6 17l5-5-5-5"/>
		</symbol>
		<symbol id="circle">
			<circle cx="12" cy="12" r="10"/>
		</symbol>
		<symbol id="edit">
			<path d="M11 4H4a2 2 0 00-2 2v14a2 2 0 002 2h14a2 2 0 002-2v-7"/>
			<path d="M18.5 2.5a2.121 2.121 0 013 3L12 15l-4 1 1-4 9.5-9.5z"/>
		</symbol>
		<symbol id="help">
			<circle cx="12" cy="12" r="10"/>
			<path d="M9.09 9a3 3 0 015.83 1c0 2-3 3-3 3"/>
			<path d="M12 17h.01"/>
		</symbol>
		<symbol id="link">
			<circle cx="12" cy="5" r="3"/>
			<line x1="12" y1="22" x2="12" y2="8"/>
			<path d="M5 12H2a10 10 0 0 0 20 0h-3"/>
		</symbol>
		<symbol id="twitter">
			<path d="M23 3a10.9 10.9 0 01-3.14 1.53 4.48 4.48 0 00-7.86 3v1A10.66 10.66 0 013 4s-4 9 5 13a11.64 11.64 0 01-7 2c9 5 20 0 20-11.5a4.5 4.5 0 00-.08-.83A7.72 7.72 0 0023 3z"/>
		</symbol>
		<symbol id="message">
			<path d="M21 15a2 2 0 0 1-2 2H7l-4 4V5a2 2 0 0 1 2-2h14a2 2 0 0 1 2 2z"/>
		</symbol>
		<symbol id="copy">
			<path d="M8 17.929H6c-1.105 0-2-.912-2-2.036V5.036C4 3.91 4.895 3 6 3h8c1.105 0 2 .911 2 2.036v1.866m-6 .17h8c1.105 0 2 .91 2 2.035v10.857C20 21.09 19.105 22 18 22h-8c-1.105 0-2-.911-2-2.036V9.107c0-1.124.895-2.036 2-2.036z"/>
		</symbol>
		<symbol id="moon">
			<path d="M21 12.79A9 9 0 1111.21 3 7 7 0 0021 12.79z"/>
		</symbol>
		<symbol id="sun">
			<circle cx="12" cy="12" r="5"/><path d="M12 1v2"/>
			<path d="M12 21v2"/>
			<path d="M4.22 4.22l1.42 1.42"/>
			<path d="M18.36 18.36l1.42 1.42"/>
			<path d="M1 12h2"/>
			<path d="M21 12h2"/>
			<path d="M4.22 19.78l1.42-1.42"/>
			<path d="M18.36 5.64l1.42-1.42"/>
		</symbol>
	</defs>
</svg>