<svg xmlns="http://www.w3.org/2000/svg" xmlns:xlink="http://www.w3.org/1999/xlink">
	<defs>
		<symbol id="airplay">
			<path d="M5 17H4a2 2 0 0 1-2-2V5a2 2 0 0 1 2-2h16a2 2 0 0 1 2 2v10a2 2 0 0 1-2 2h-1"/>
			<polygon points="12 15 17 21 7 21 12 15"/>
		</symbol>
		<symbol id="chevron-right">
			<path d="M9 18l6-6-6-6"/>
		</symbol>
		<symbol id="chevrons-right">
			<path d="M13 17l5-5-5-5"/>
			<path d="M6 17l5-5-5-5"/>
		</symbol>
		<symbol id="circle">
			<circle cx="12" cy="12" r="10"/>
		</symbol>
		<symbol id="edit">
			<path d="M11 4H4a2 2 0 00-2 2v14a2 2 0 002 2h14a2 2 0 002-2v-7"/>
			<path d="M18.5 2.5a2.121 2.121 0 013 3L12 15l-4 1 1-4 9.5-9.5z"/>
		</symbol>
		<symbol id="help">
			<circle cx="12" cy="12" r="10"/>
			<path d="M9.09 9a3 3 0 015.83 1c0 2-3 3-3 3"/>
			<path d="M12 17h.01"/>
		</symbol>
		<symbol id="link">
			<circle cx="12" cy="5" r="3"/>
			<line x1="12" y1="22" x2="12" y2="8"/>
			<path d="M5 12H2a10 10 0 0 0 20 0h-3"/>
		</symbol>
		<symbol id="twitter">
			<path d="M23 3a10.9 10.9 0 01-3.14 1.53 4.48 4.48 0 00-7.86 3v1A10.66 10.66 0 013 4s-4 9 5 13a11.64 11.64 0 01-7 2c9 5 20 0 20-11.5a4.5 4.5 0 00-.08-.83A7.72 7.72 0 0023 3z"/>
		</symbol>
		<symbol id="message">
			<path d="M21 15a2 2 0 0 1-2 2H7l-4 4V5a2 2 0 0 1 2-2h14a2 2 0 0 1 2 2z"/>
		</symbol>
	</defs>
</svg>